<svg id="SvgjsSvg1011" xmlns="http://www.w3.org/2000/svg" version="1.1" xmlns:xlink="http://www.w3.org/1999/xlink" xmlns:svgjs="http://svgjs.com/svgjs" width="20" height="20" viewBox="0 0 20 20"><title>Shape</title><desc>Created with Avocode.</desc><defs id="SvgjsDefs1012"></defs><path id="SvgjsPath1013" d="M1378.45 68.8L1371.65 62L1378.45 55.2C1379.18 54.470000000000006 1379.18 53.28 1378.45 52.550000000000004C1377.72 51.82000000000001 1376.53 51.82000000000001 1375.8 52.550000000000004L1369 59.35L1362.2 52.550000000000004C1361.47 51.82000000000001 1360.28 51.82000000000001 1359.55 52.550000000000004C1358.82 53.28 1358.82 54.470000000000006 1359.55 55.2L1366.35 62L1359.55 68.8C1358.82 69.53 1358.82 70.72 1359.55 71.45C1360.28 72.18 1361.47 72.18 1362.2 71.45L1369 64.65L1375.8 71.45C1376.53 72.18 1377.72 72.18 1378.45 71.45C1379.18 70.72 1379.18 69.53 1378.45 68.8Z " fill="#ffffff" fill-opacity="1" transform="matrix(1,0,0,1,-1359,-52)"></path></svg>