<svg id="SvgjsSvg1030" xmlns="http://www.w3.org/2000/svg" version="1.1" xmlns:xlink="http://www.w3.org/1999/xlink" xmlns:svgjs="http://svgjs.com/svgjs" width="25" height="25" viewBox="0 0 25 25"><title>Oval</title><desc>Created with Avocode.</desc><defs id="SvgjsDefs1031"></defs><path id="SvgjsPath1032" d="M224 92C224 90.89543 224.89543 90 226 90C227.10457 90 228 90.89543 228 92C228 93.10457 227.10457 94 226 94C224.89543 94 224 93.10457 224 92Z " fill="#000000" fill-opacity="1" transform="matrix(1,0,0,1,-214,-80)"></path><path id="SvgjsPath1033" d="M229.15 87H223.65C222.85 87 222.15 87.25 221.70000000000002 87.7C221.25000000000003 88.15 221.00000000000003 88.85000000000001 221.00000000000003 89.65V95.15C221.00000000000003 95.95 221.25000000000003 96.65 221.75000000000003 97.15C222.25000000000003 97.60000000000001 222.90000000000003 97.85000000000001 223.70000000000002 97.85000000000001H229.15C229.95000000000002 97.85000000000001 230.65 97.60000000000001 231.1 97.15C231.6 96.7 231.85 96 231.85 95.2V89.7C231.85 88.9 231.6 88.25 231.15 87.75C230.65 87.25 230 87 229.15 87ZM226.4 95.8C224.5 95.8 223 94.25 223 92.39999999999999C223 90.49999999999999 224.55 88.99999999999999 226.4 88.99999999999999C228.25 88.99999999999999 229.85 90.49999999999999 229.85 92.39999999999999C229.85 94.3 228.29999999999998 95.8 226.4 95.8ZM229.95 89.65C229.5 89.65 229.14999999999998 89.30000000000001 229.14999999999998 88.85000000000001C229.14999999999998 88.4 229.49999999999997 88.05000000000001 229.95 88.05000000000001C230.39999999999998 88.05000000000001 230.75 88.4 230.75 88.85000000000001C230.75 89.30000000000001 230.4 89.65 229.95 89.65Z " fill="#000000" fill-opacity="1" transform="matrix(1,0,0,1,-214,-80)"></path><path id="SvgjsPath1034" d="M226.3 80C219.5 80 214 85.5 214 92.3C214 99.1 219.5 104.6 226.3 104.6C233.10000000000002 104.6 238.60000000000002 99.1 238.60000000000002 92.3C238.65000000000003 85.5 233.10000000000002 80 226.3 80ZM232.85 95.2C232.85 96.35000000000001 232.45 97.35000000000001 231.75 98.05C231.05 98.75 230.05 99.1 228.95 99.1H223.5C222.4 99.1 221.4 98.75 220.7 98.05C219.95 97.35 219.6 96.35 219.6 95.2V89.7C219.6 87.4 221.15 85.8 223.5 85.8H229C230.15 85.8 231.1 86.2 231.8 86.89999999999999C232.5 87.6 232.85000000000002 88.55 232.85000000000002 89.69999999999999Z " fill="#000000" fill-opacity="1" transform="matrix(1,0,0,1,-214,-80)"></path></svg>