<svg id="SvgjsSvg1020" xmlns="http://www.w3.org/2000/svg" version="1.1" xmlns:xlink="http://www.w3.org/1999/xlink" xmlns:svgjs="http://svgjs.com/svgjs" width="20" height="36" viewBox="0 0 20 36"><title>Shape</title><desc>Created with Avocode.</desc><defs id="SvgjsDefs1021"></defs><path id="SvgjsPath1022" d="M1409.39 510.29C1409.38 510.28000000000003 1409.3700000000001 510.27000000000004 1409.3600000000001 510.26000000000005C1409.3100000000002 510.20000000000005 1409.2600000000002 510.13000000000005 1409.2 510.07000000000005L1393.88 494.64000000000004C1393.0400000000002 493.79 1391.67 493.79 1390.8200000000002 494.63000000000005C1389.9600000000003 495.47 1389.9600000000003 496.8500000000001 1390.8000000000002 497.70000000000005L1404.7500000000002 511.75000000000006L1390.6600000000003 525.3100000000001C1389.8000000000004 526.1400000000001 1389.7800000000002 527.5200000000001 1390.6100000000004 528.3800000000001C1391.4400000000003 529.2500000000001 1392.8100000000004 529.2700000000001 1393.6800000000003 528.44L1409.3400000000004 513.36C1410.2000000000003 512.53 1410.2200000000005 511.15000000000003 1409.3900000000003 510.29Z " fill="#ffffff" fill-opacity="1" transform="matrix(1,0,0,1,-1390,-494)"></path></svg>