<svg id="SvgjsSvg1026" xmlns="http://www.w3.org/2000/svg" version="1.1" xmlns:xlink="http://www.w3.org/1999/xlink" xmlns:svgjs="http://svgjs.com/svgjs" width="20" height="20" viewBox="0 0 20 20"><title>Shape</title><desc>Created with Avocode.</desc><defs id="SvgjsDefs1027"></defs><path id="SvgjsPath1028" d="M1336.14 52H1321.8600000000001C1320.2900000000002 52 1319.0000000000002 53.29 1319.0000000000002 54.86V69.14C1319.0000000000002 70.71 1320.2900000000002 72 1321.8600000000001 72H1336.14C1337.71 72 1339 70.71 1339 69.14V54.86C1339 53.29 1337.71 52 1336.14 52ZM1334.71 62C1334.71 62.83 1334.03 63.43 1333.29 63.43C1332.69 63.43 1332.32 63.11 1331.86 62.6L1331.1299999999999 61.870000000000005L1325.7099999999998 67.29C1325.4499999999998 67.55000000000001 1325.1699999999998 67.71000000000001 1324.7099999999998 67.71000000000001C1323.9299999999998 67.71000000000001 1323.2899999999997 67.07000000000001 1323.2899999999997 66.29C1323.2899999999997 65.97000000000001 1323.3599999999997 65.64 1323.7099999999998 65.29L1329.1299999999999 59.870000000000005L1328.3999999999999 59.14000000000001C1327.8999999999999 58.690000000000005 1327.57 58.31000000000001 1327.57 57.71000000000001C1327.57 56.970000000000006 1328.1699999999998 56.290000000000006 1329 56.290000000000006H1333.29C1334.08 56.290000000000006 1334.71 56.92000000000001 1334.71 57.71000000000001Z " fill="#ffffff" fill-opacity="1" transform="matrix(1,0,0,1,-1319,-52)"></path></svg>