<svg id="SvgjsSvg1027" xmlns="http://www.w3.org/2000/svg" version="1.1" xmlns:xlink="http://www.w3.org/1999/xlink" xmlns:svgjs="http://svgjs.com/svgjs" width="25" height="26" viewBox="0 0 25 26"><title>Shape</title><desc>Created with Avocode.</desc><defs id="SvgjsDefs1028"></defs><path id="SvgjsPath1029" d="M181.5 80C174.6 80 169 85.74 169 92.82C169 98.47999999999999 172.58 103.28 177.55 104.97999999999999C178.17000000000002 105.08999999999999 178.4 104.69999999999999 178.4 104.35999999999999C178.4 104.05999999999999 178.39000000000001 103.03999999999999 178.38 101.96999999999998C174.91 102.74999999999999 174.17 100.45999999999998 174.17 100.45999999999998C173.6 98.97999999999998 172.79 98.58999999999997 172.79 98.58999999999997C171.65 97.78999999999998 172.87 97.80999999999997 172.87 97.80999999999997C174.13 97.89999999999998 174.79 99.12999999999997 174.79 99.12999999999997C175.9 101.08999999999996 177.70999999999998 100.51999999999997 178.42999999999998 100.18999999999997C178.54 99.36999999999998 178.85999999999999 98.79999999999997 179.21999999999997 98.47999999999998C176.43999999999997 98.15999999999998 173.52999999999997 97.05999999999997 173.52999999999997 92.14999999999998C173.52999999999997 90.74999999999997 174.00999999999996 89.60999999999997 174.80999999999997 88.70999999999998C174.67999999999998 88.37999999999998 174.24999999999997 87.07999999999998 174.92999999999998 85.31999999999998C174.92999999999998 85.31999999999998 175.98 84.96999999999998 178.36999999999998 86.62999999999998C179.36999999999998 86.33999999999997 180.43999999999997 86.19999999999997 181.49999999999997 86.19999999999997C182.55999999999997 86.19999999999997 183.62999999999997 86.34999999999998 184.62999999999997 86.62999999999998C187.00999999999996 84.96999999999998 188.05999999999997 85.31999999999998 188.05999999999997 85.31999999999998C188.74999999999997 87.07999999999998 188.31999999999996 88.37999999999998 188.18999999999997 88.70999999999998C188.98999999999998 89.60999999999999 189.46999999999997 90.74999999999999 189.46999999999997 92.14999999999998C189.46999999999997 97.06999999999998 186.54999999999998 98.15999999999998 183.76999999999998 98.46999999999997C184.21999999999997 98.86999999999998 184.60999999999999 99.64999999999998 184.60999999999999 100.83999999999997C184.60999999999999 102.55999999999997 184.6 103.93999999999997 184.6 104.35999999999997C184.6 104.69999999999997 184.82 105.09999999999997 185.46 104.97999999999998C190.42000000000002 103.27999999999997 194 98.47999999999998 194 92.81999999999998C194 85.73999999999998 188.4 79.99999999999997 181.5 79.99999999999997Z " fill="#000000" fill-opacity="1" transform="matrix(1,0,0,1,-169,-80)"></path></svg>