<svg id="SvgjsSvg1017" xmlns="http://www.w3.org/2000/svg" version="1.1" xmlns:xlink="http://www.w3.org/1999/xlink" xmlns:svgjs="http://svgjs.com/svgjs" width="25" height="25" viewBox="0 0 25 25"><title>Shape</title><desc>Created with Avocode.</desc><defs id="SvgjsDefs1018"></defs><path id="SvgjsPath1019" d="M91.5 80C84.6 80 79 85.6 79 92.5C79 99.4 84.6 105 91.5 105C98.4 105 104 99.4 104 92.5C104 85.6 98.4 80 91.5 80Z " fill="#000000" fill-opacity="1" transform="matrix(1,0,0,1,-79,-80)"></path><path id="SvgjsPath1020" d="M84 96.58L88.05 91.48L84 89Z " fill="#ffffff" fill-opacity="1" transform="matrix(1,0,0,1,-79,-80)"></path><path id="SvgjsPath1021" d="M94.68 92L91.94000000000001 93.69L89.19000000000001 92.00999999999999L85.00000000000001 97.27999999999999H98.87000000000002Z " fill="#ffffff" fill-opacity="1" transform="matrix(1,0,0,1,-79,-80)"></path><path id="SvgjsPath1022" d="M91.4 92.75L98.82000000000001 88.19V87H84V88.23Z " fill="#ffffff" fill-opacity="1" transform="matrix(1,0,0,1,-79,-80)"></path><path id="SvgjsPath1023" d="M95 91.51L99.08 96.64V89Z " fill="#ffffff" fill-opacity="1" transform="matrix(1,0,0,1,-79,-80)"></path></svg>