<svg id="SvgjsSvg1024" xmlns="http://www.w3.org/2000/svg" version="1.1" xmlns:xlink="http://www.w3.org/1999/xlink" xmlns:svgjs="http://svgjs.com/svgjs" width="25" height="25" viewBox="0 0 25 25"><title>Shape</title><desc>Created with Avocode.</desc><defs id="SvgjsDefs1025"></defs><path id="SvgjsPath1026" d="M143.52 93.51C143.52 90.9 142.12 89.68 140.26000000000002 89.68C138.76000000000002 89.68 138.08 90.51 137.71 91.08000000000001V89.88000000000001H134.88C134.92 90.68 134.88 98.39000000000001 134.88 98.39000000000001H137.71V93.64000000000001C137.71 93.38000000000001 137.73000000000002 93.13000000000001 137.8 92.95000000000002C138.01000000000002 92.44000000000001 138.47 91.91000000000001 139.25 91.91000000000001C140.28 91.91000000000001 140.69 92.69000000000001 140.69 93.84000000000002V98.39000000000001H143.52ZM131.9 88.72C132.89000000000001 88.72 133.5 88.06 133.5 87.25C133.48 86.41 132.89 85.78 131.92 85.78C130.95 85.78 130.32 86.41 130.32 87.25C130.32 88.06 130.93 88.72 131.88 88.72ZM136.5 105C129.6 105 124 99.4 124 92.5C124 85.6 129.6 80 136.5 80C143.4 80 149 85.6 149 92.5C149 99.4 143.4 105 136.5 105ZM133.31 98.39V89.88H130.49V98.39Z " fill="#000000" fill-opacity="1" transform="matrix(1,0,0,1,-124,-80)"></path></svg>