<svg id="SvgjsSvg1035" xmlns="http://www.w3.org/2000/svg" version="1.1" xmlns:xlink="http://www.w3.org/1999/xlink" xmlns:svgjs="http://svgjs.com/svgjs" width="25" height="25" viewBox="0 0 25 25"><title>Shape</title><desc>Created with Avocode.</desc><defs id="SvgjsDefs1036"></defs><path id="SvgjsPath1037" d="M271.5 80C264.6 80 259 85.6 259 92.5C259 99.4 264.6 105 271.5 105C278.4 105 284 99.4 284 92.5C284 85.6 278.4 80 271.5 80ZM277.8 89.98C277.8 90.12 277.81 90.25 277.81 90.39C277.81 94.55 274.64 99.35 268.84 99.35C267.06 99.35 265.40999999999997 98.83 264.01 97.94C264.26 97.96 264.51 97.98 264.77 97.98C266.24 97.98 267.59999999999997 97.48 268.68 96.63000000000001C267.3 96.61000000000001 266.14 95.69000000000001 265.74 94.44000000000001C265.93 94.48000000000002 266.13 94.50000000000001 266.33 94.50000000000001C266.62 94.50000000000001 266.89 94.46000000000001 267.15999999999997 94.39000000000001C265.71999999999997 94.10000000000001 264.63 92.83000000000001 264.63 91.30000000000001C264.63 91.29 264.63 91.27000000000001 264.63 91.26C265.06 91.5 265.54 91.64 266.06 91.65C265.21 91.09 264.66 90.13000000000001 264.66 89.03C264.66 88.45 264.81 87.91 265.08000000000004 87.45C266.64000000000004 89.35000000000001 268.96000000000004 90.61 271.58000000000004 90.74000000000001C271.52000000000004 90.51 271.49000000000007 90.27000000000001 271.49000000000007 90.02000000000001C271.49000000000007 88.28000000000002 272.9100000000001 86.87 274.6500000000001 86.87C275.55000000000007 86.87 276.3700000000001 87.25 276.9400000000001 87.87C277.66000000000014 87.73 278.3400000000001 87.46000000000001 278.9400000000001 87.10000000000001C278.7100000000001 87.84 278.2100000000001 88.45 277.5600000000001 88.84C278.2000000000001 88.77000000000001 278.8000000000001 88.60000000000001 279.3700000000001 88.35000000000001C278.9500000000001 88.98 278.41000000000014 89.54 277.8000000000001 89.98Z " fill="#000000" fill-opacity="1" transform="matrix(1,0,0,1,-259,-80)"></path></svg>