<?xml version="1.0" encoding="utf-8"?>
<!-- Generator: Adobe Illustrator 21.0.2, SVG Export Plug-In . SVG Version: 6.00 Build 0)  -->
<svg version="1.1" id="Layer_1" xmlns="http://www.w3.org/2000/svg" xmlns:xlink="http://www.w3.org/1999/xlink" x="0px" y="0px"
	 viewBox="0 0 245 35" style="enable-background:new 0 0 245 35;" xml:space="preserve">
<style type="text/css">
	.st0{fill:url(#SVGID_1_);}
</style>
<path d="M75.5,12.7c0.5,0,0.9,0.2,1.3,0.5c0.4,0.4,0.6,0.8,0.6,1.3s-0.2,1-0.6,1.3s-0.8,0.5-1.3,0.5H48.3v-3.6L75.5,12.7L75.5,12.7z
	 M45.9,8c-0.7,0-1.2,0.2-1.7,0.7s-0.7,1-0.7,1.7V27c0,0.7,0.2,1.2,0.7,1.7s1,0.7,1.7,0.7c0.6,0,1.2-0.2,1.6-0.7
	c0.5-0.5,0.7-1,0.7-1.7v-6h27c0.9,0,1.8-0.2,2.6-0.5c0.8-0.3,1.5-0.8,2.1-1.4s1.1-1.3,1.4-2.1c0.3-0.8,0.5-1.6,0.5-2.5
	s-0.2-1.8-0.5-2.5c-0.3-0.8-0.8-1.5-1.4-2.1s-1.3-1.1-2.1-1.4C77.1,8.2,76.2,8,75.3,8H45.9L45.9,8z M100,13.2
	c0.2-0.3,0.5-0.5,0.8-0.9c0.3-0.3,0.7-0.5,1.1-0.5s0.7,0.2,1.1,0.5c0.3,0.3,0.6,0.6,0.9,0.9l11.4,15.2c0.5,0.6,1.1,0.9,1.9,0.9
	c0.7,0,1.2-0.2,1.7-0.7s0.7-1,0.7-1.7c0-0.3-0.1-0.6-0.2-0.9s-0.3-0.5-0.5-0.8l-12-15.7c-0.6-0.8-1.3-1.3-2.2-1.8
	c-0.9-0.4-1.8-0.6-2.8-0.6s-2,0.2-2.9,0.7s-1.7,1.1-2.2,1.8l-11.9,16c-0.3,0.4-0.5,0.8-0.5,1.4c0,0.7,0.2,1.2,0.7,1.7s1,0.7,1.7,0.7
	s1.3-0.3,1.8-0.9L100,13.2L100,13.2z"/>
<path d="M154.3,8h-33.7c-0.7,0-1.2,0.2-1.7,0.7s-0.7,1-0.7,1.7c0,0.6,0.2,1.2,0.6,1.6c0.4,0.4,0.9,0.7,1.5,0.8H135V27
	c0,0.7,0.2,1.2,0.7,1.7s1,0.7,1.7,0.7s1.2-0.2,1.7-0.7s0.7-1,0.7-1.7V12.7h14.5c0.7,0,1.2-0.2,1.7-0.7s0.7-1,0.7-1.7
	s-0.2-1.2-0.7-1.7C155.5,8.3,154.9,8,154.3,8L154.3,8L154.3,8z M193.1,21.1h0.2c0.9,0,1.8-0.2,2.6-0.5s1.5-0.8,2.1-1.4
	s1.1-1.3,1.4-2.1c0.3-0.8,0.5-1.6,0.5-2.5s-0.2-1.8-0.5-2.5c-0.3-0.8-0.8-1.5-1.4-2.1c-0.6-0.6-1.3-1.1-2.1-1.4
	C195,8.2,194.2,8,193.3,8h-29.4c-0.7,0-1.2,0.2-1.7,0.7s-0.7,1-0.7,1.7s0.2,1.2,0.7,1.7s1,0.7,1.7,0.7h29.6c0.5,0,0.9,0.2,1.3,0.5
	c0.4,0.4,0.6,0.8,0.6,1.3s-0.2,1-0.6,1.3c-0.4,0.3-0.8,0.5-1.3,0.5h-26c-0.8,0-1.6,0.2-2.4,0.5c-0.7,0.3-1.3,0.7-1.9,1.3
	c-0.5,0.5-0.9,1.2-1.2,1.9c-0.3,0.7-0.5,1.5-0.5,2.3V27c0,0.7,0.2,1.2,0.7,1.7s1,0.7,1.7,0.7c0.6,0,1.2-0.2,1.6-0.7
	c0.5-0.5,0.7-1,0.7-1.7v-4.2c0-0.5,0.1-0.9,0.4-1.2c0.3-0.3,0.7-0.5,1.1-0.6h9.8c1.8,0,3.5,0.2,5.1,0.6s3.2,1,4.7,1.7s3,1.5,4.4,2.5
	c1.4,0.9,2.8,1.9,4.1,2.8c0.6,0.5,1.1,0.7,1.7,0.7c0.7,0,1.2-0.2,1.7-0.7s0.7-1,0.7-1.7c0-0.5-0.1-0.9-0.4-1.2
	c-0.3-0.3-0.6-0.6-0.9-0.9c-0.9-0.8-1.9-1.4-2.8-2.1C194.8,22.2,193.9,21.6,193.1,21.1L193.1,21.1L193.1,21.1z M238.1,10.4V20
	c0,1.2-0.1,2.1-0.2,2.7c-0.1,0.6-0.4,0.9-0.9,0.9c-0.3,0-0.6-0.1-1-0.3c-0.4-0.2-0.9-0.5-1.5-0.9L212,8.8c-0.4-0.2-0.8-0.4-1.2-0.5
	s-0.9-0.2-1.3-0.2c-1.3,0-2.5,0.5-3.4,1.4s-1.3,2-1.3,3.4V27c0,0.7,0.2,1.2,0.7,1.7s1,0.7,1.7,0.7s1.2-0.2,1.7-0.7s0.7-1,0.7-1.7
	v-9.7c0-1.2,0.1-2.1,0.2-2.7c0.1-0.6,0.4-0.9,0.9-0.9c0.3,0,0.6,0.1,1,0.3s0.9,0.5,1.5,0.9l22.4,13.7c0.4,0.2,0.8,0.4,1.2,0.5
	s0.9,0.2,1.3,0.2c1.3,0,2.5-0.5,3.4-1.4s1.3-2,1.3-3.4V10.4c0-0.7-0.2-1.2-0.7-1.7s-1-0.7-1.7-0.7s-1.2,0.2-1.7,0.7
	C238.4,9.2,238.1,9.7,238.1,10.4L238.1,10.4L238.1,10.4z"/>
<g>
	
		<linearGradient id="SVGID_1_" gradientUnits="userSpaceOnUse" x1="17.8" y1="34.5217" x2="17.8" y2="2.6598" gradientTransform="matrix(1 0 0 -1 0 36)">
		<stop  offset="0" style="stop-color:#51D8B7"/>
		<stop  offset="1" style="stop-color:#C3E5FE"/>
	</linearGradient>
	<path class="st0" d="M17.8,1.4c-8.8,0-16,7.2-16,16s7.2,16,16,16s16-7.2,16-16S26.7,1.4,17.8,1.4z M28.4,17.4
		c0,5.8-4.7,10.5-10.5,10.5S7.3,23.2,7.3,17.4S12,6.9,17.8,6.9S28.4,11.6,28.4,17.4z"/>
</g>
</svg>
