<svg id="SvgjsSvg1023" xmlns="http://www.w3.org/2000/svg" version="1.1" xmlns:xlink="http://www.w3.org/1999/xlink" xmlns:svgjs="http://svgjs.com/svgjs" width="20" height="36" viewBox="0 0 20 36"><title>Shape</title><desc>Created with Avocode.</desc><defs id="SvgjsDefs1024"></defs><path id="SvgjsPath1025" d="M48.39 510.29C48.38 510.28000000000003 48.37 510.27000000000004 48.36 510.26000000000005C48.31 510.20000000000005 48.26 510.13000000000005 48.2 510.07000000000005L32.88 494.64000000000004C32.04 493.79 30.67 493.79 29.820000000000004 494.63000000000005C28.960000000000004 495.47 28.960000000000004 496.8500000000001 29.800000000000004 497.70000000000005L43.75 511.75000000000006L29.66 525.3100000000001C28.8 526.1400000000001 28.78 527.5200000000001 29.61 528.3800000000001C30.439999999999998 529.2500000000001 31.81 529.2700000000001 32.68 528.44L48.34 513.36C49.2 512.53 49.220000000000006 511.15000000000003 48.39 510.29Z " fill="#ffffff" fill-opacity="1" transform="matrix(1,0,0,1,-29,-494)"></path></svg>